<svg width="24" height="24" viewBox="0 0 24 24" fill="none" xmlns="http://www.w3.org/2000/svg">
<path d="M9.57 18.8201C9.76 18.8201 9.95 18.7501 10.1 18.6001C10.39 18.3101 10.39 17.8301 10.1 17.5401L4.56 12.0001L10.1 6.46012C10.39 6.17012 10.39 5.69012 10.1 5.40012C9.81 5.11012 9.33 5.11012 9.04 5.40012L2.97 11.4701C2.68 11.7601 2.68 12.2401 2.97 12.5301L9.04 18.6001C9.19 18.7501 9.38 18.8201 9.57 18.8201Z" fill="#3C3C3C"/>
<path d="M3.67 12.75H20.5C20.91 12.75 21.25 12.41 21.25 12C21.25 11.59 20.91 11.25 20.5 11.25H3.67C3.26 11.25 2.92 11.59 2.92 12C2.92 12.41 3.26 12.75 3.67 12.75Z" fill="#3C3C3C"/>
</svg>
