<svg width="19" height="22" viewBox="0 0 19 22" fill="none" xmlns="http://www.w3.org/2000/svg">
<path d="M12.4648 12.603H5.77268C5.38071 12.603 5.05566 12.2779 5.05566 11.886C5.05566 11.494 5.38071 11.1689 5.77268 11.1689H12.4648C12.8568 11.1689 13.1818 11.494 13.1818 11.886C13.1818 12.2779 12.8568 12.603 12.4648 12.603Z" fill="#3C3C3C"/>
<path d="M12.4648 12.603H5.77268C5.38071 12.603 5.05566 12.2779 5.05566 11.886C5.05566 11.494 5.38071 11.1689 5.77268 11.1689H12.4648C12.8568 11.1689 13.1818 11.494 13.1818 11.886C13.1818 12.2779 12.8568 12.603 12.4648 12.603Z" fill="#3C3C3C"/>
<path d="M9.96004 16.4272H5.77268C5.38071 16.4272 5.05566 16.1021 5.05566 15.7102C5.05566 15.3182 5.38071 14.9932 5.77268 14.9932H9.96004C10.352 14.9932 10.6771 15.3182 10.6771 15.7102C10.6771 16.1021 10.352 16.4272 9.96004 16.4272Z" fill="#3C3C3C"/>
<rect x="0.777778" y="4.11079" width="17.1111" height="17.1111" rx="4.27778" stroke="#3C3C3C" stroke-width="1.55556"/>
<path d="M6.22217 3.52778V1" stroke="#3C3C3C" stroke-width="1.55556" stroke-linecap="round"/>
<path d="M12.4443 3.52778V1" stroke="#3C3C3C" stroke-width="1.55556" stroke-linecap="round"/>
<path d="M0.972168 8.38867H17.8888" stroke="#3C3C3C" stroke-width="1.55556" stroke-linecap="round"/>
</svg>
