<svg width="80" height="48" viewBox="0 0 80 48" fill="none" xmlns="http://www.w3.org/2000/svg">
<path d="M0 16C0 7.16344 7.16344 0 16 0H64C72.8366 0 80 7.16344 80 16V32C80 40.8366 72.8366 48 64 48H16C7.16344 48 0 40.8366 0 32V16Z" fill="white"/>
<path d="M19.0078 27.016H19.3678L22.9198 32.536H27.5758L23.5438 26.824C24.8158 26.512 25.7998 25.864 26.4718 24.88C27.1678 23.896 27.5038 22.768 27.5038 21.52C27.5038 20.008 27.0238 18.712 26.0398 17.632C25.0558 16.552 23.6638 16 21.8398 16H14.9998V32.536H19.0078V27.016ZM21.6478 19.504C24.0478 19.36 24.0478 23.68 21.6478 23.56H19.0078V19.504H21.6478Z" fill="#3C3C3C"/>
<path d="M38.9662 24.904L34.0222 16H30.3982V32.536H34.4062V23.512L39.4702 32.536H42.9742V16H38.9662V24.904Z" fill="#3C3C3C"/>
<path d="M58.4958 20.44C58.4958 19.12 58.0398 18.04 57.1038 17.224C56.1918 16.408 54.9678 16 53.4318 16H46.6638V32.536H53.9118C55.7838 32.536 57.1518 32.056 58.0398 31.12C58.9278 30.16 59.3598 29.008 59.3598 27.64C59.3598 26.752 59.0958 25.912 58.5438 25.12C57.9918 24.328 57.1998 23.872 56.1678 23.704C56.9838 23.464 57.5838 23.008 57.9438 22.36C58.3038 21.712 58.4958 21.064 58.4958 20.44ZM50.6958 19.504H52.9038C53.7918 19.504 54.2478 20.008 54.2478 21.016C54.2478 21.856 53.6958 22.384 52.8558 22.384H50.6958V19.504ZM53.2398 25.672C54.4878 25.672 55.1118 26.464 55.1118 27.328C55.1118 28.264 54.4398 29.032 53.2638 29.032H50.6958V25.672H53.2398Z" fill="#3C3C3C"/>
<path d="M61.4371 30.52C61.4371 31.792 62.4451 32.752 63.6931 32.752C64.9651 32.752 65.9971 31.792 65.9971 30.52C65.9971 29.272 64.9651 28.336 63.6931 28.336C62.4451 28.336 61.4371 29.272 61.4371 30.52Z" fill="#3C3C3C"/>
</svg>
