<svg width="26" height="20" viewBox="0 0 26 20" fill="none" xmlns="http://www.w3.org/2000/svg">
<path d="M6.71892 0.543485C10.8984 0.180167 15.1016 0.180167 19.2811 0.543484L21.2948 0.718527C22.6353 0.835053 23.7833 1.63461 24.3782 2.77832C24.4543 2.92463 24.3973 3.10178 24.257 3.18859L15.9024 8.36049C14.1106 9.46971 11.8513 9.49299 10.037 8.42091L1.62653 3.4511C1.49065 3.37081 1.42828 3.20553 1.48952 3.06006C2.03373 1.7673 3.25723 0.844402 4.70528 0.718527L6.71892 0.543485Z" fill="#3C3C3C"/>
<path d="M1.48267 5.68917C1.27472 5.56629 1.00938 5.69853 0.985145 5.93885C0.646831 9.29303 0.728712 12.679 1.23079 16.0178C1.49547 17.7779 2.93202 19.1273 4.70528 19.2815L6.71892 19.4565C10.8984 19.8198 15.1016 19.8198 19.2811 19.4565L21.2948 19.2815C23.068 19.1273 24.5046 17.7779 24.7693 16.0178C25.286 12.5817 25.3576 9.09565 24.9843 5.6457C24.9581 5.40368 24.6882 5.27388 24.4812 5.40201L16.9551 10.061C14.5309 11.5617 11.4741 11.5932 9.01951 10.1428L1.48267 5.68917Z" fill="#3C3C3C"/>
</svg>
