<svg width="23" height="23" viewBox="0 0 23 23" fill="none" xmlns="http://www.w3.org/2000/svg">
<path d="M1.66692 9.1473C4.22212 14.7125 8.76879 19.1372 14.4215 21.5358L15.3276 21.9396C17.4007 22.8632 19.8377 22.1615 21.1022 20.2768L22.2863 18.5119C22.6713 17.938 22.5541 17.1652 22.0162 16.7313L18.0005 13.4916C17.4106 13.0157 16.5433 13.1265 16.092 13.7354L14.8497 15.4118C11.662 13.8393 9.07391 11.2512 7.50145 8.06349L9.17779 6.8212C9.78667 6.36997 9.89751 5.50262 9.42165 4.91277L6.18183 0.896849C5.74803 0.359141 4.97536 0.241851 4.40154 0.626609L2.62442 1.81821C0.727959 3.08982 0.0301184 5.54695 0.975094 7.62555L1.66588 9.14503L1.66692 9.1473Z" fill="#3C3C3C"/>
</svg>
