<svg width="25" height="24" viewBox="0 0 25 24" fill="none" xmlns="http://www.w3.org/2000/svg">
<path fill-rule="evenodd" clip-rule="evenodd" d="M10.0509 3.0206C11.986 2.58338 14.0106 2.78341 15.8228 3.59086C16.2264 3.77069 16.6993 3.5893 16.8791 3.18572C17.059 2.78214 16.8776 2.3092 16.474 2.12938C14.3467 1.1815 11.9699 0.946681 9.69827 1.45994C7.42659 1.97319 5.38168 3.20702 3.86852 4.97742C2.35537 6.74781 1.45503 8.95991 1.30179 11.2838C1.14856 13.6077 1.75063 15.9189 3.01822 17.8726C4.28581 19.8264 6.151 21.318 8.33561 22.1251C10.5202 22.9322 12.9072 23.0115 15.1406 22.3512C17.3739 21.6909 19.334 20.3263 20.7285 18.461C22.1229 16.5956 22.8771 14.3291 22.8784 12.0001V11.0801C22.8784 10.6383 22.5202 10.2801 22.0784 10.2801C21.6366 10.2801 21.2784 10.6383 21.2784 11.0801V11.9997C21.2773 13.9836 20.6348 15.914 19.447 17.5029C18.2591 19.0919 16.5894 20.2543 14.6869 20.8169C12.7844 21.3794 10.7511 21.3118 8.8901 20.6243C7.02913 19.9368 5.44027 18.6661 4.36047 17.0018C3.28067 15.3375 2.76779 13.3687 2.89833 11.3891C3.02886 9.40946 3.79581 7.52508 5.0848 6.01697C6.37379 4.50886 8.11575 3.45782 10.0509 3.0206ZM22.6462 4.56517C22.9584 4.2526 22.9582 3.74607 22.6456 3.4338C22.333 3.12154 21.8265 3.12179 21.5142 3.43437L12.0799 12.8781L9.6459 10.4441C9.33348 10.1317 8.82695 10.1317 8.51453 10.4441C8.20211 10.7565 8.20211 11.263 8.51453 11.5755L11.5145 14.5755C11.6646 14.7255 11.8682 14.8098 12.0804 14.8098C12.2927 14.8097 12.4962 14.7253 12.6462 14.5752L22.6462 4.56517Z" fill="#41B189"/>
</svg>
