<svg width="25" height="24" viewBox="0 0 25 24" fill="none" xmlns="http://www.w3.org/2000/svg">
<path fill-rule="evenodd" clip-rule="evenodd" d="M12.0802 2.8C6.99919 2.8 2.88021 6.91898 2.88021 12C2.88021 17.081 6.99919 21.2 12.0802 21.2C17.1612 21.2 21.2802 17.081 21.2802 12C21.2802 6.91898 17.1612 2.8 12.0802 2.8ZM1.28021 12C1.28021 6.03533 6.11554 1.2 12.0802 1.2C18.0449 1.2 22.8802 6.03533 22.8802 12C22.8802 17.9647 18.0449 22.8 12.0802 22.8C6.11554 22.8 1.28021 17.9647 1.28021 12Z" fill="#3C3C3C"/>
<path fill-rule="evenodd" clip-rule="evenodd" d="M12.0802 5.2C12.522 5.2 12.8802 5.55817 12.8802 6V11.5056L16.438 13.2845C16.8332 13.482 16.9933 13.9626 16.7958 14.3578C16.5982 14.753 16.1176 14.9131 15.7224 14.7155L11.7224 12.7155C11.4514 12.58 11.2802 12.303 11.2802 12V6C11.2802 5.55817 11.6384 5.2 12.0802 5.2Z" fill="#3C3C3C"/>
</svg>
