<svg width="25" height="24" viewBox="0 0 25 24" fill="none" xmlns="http://www.w3.org/2000/svg">
<path fill-rule="evenodd" clip-rule="evenodd" d="M18.7999 2.6C18.5335 2.6 18.2698 2.65247 18.0237 2.7544C17.7775 2.85634 17.5539 3.00576 17.3656 3.19411L4.01581 16.5439L2.94007 20.4883L6.88444 19.4125L20.2342 6.06274C20.4226 5.87438 20.572 5.65077 20.6739 5.40467C20.7759 5.15858 20.8283 4.89481 20.8283 4.62843C20.8283 4.36205 20.7759 4.09828 20.6739 3.85218C20.572 3.60608 20.4226 3.38247 20.2342 3.19411C20.0459 3.00576 19.8222 2.85634 19.5761 2.7544C19.33 2.65247 19.0663 2.6 18.7999 2.6ZM17.4114 1.2762C17.8516 1.09385 18.3234 1 18.7999 1C19.2764 1 19.7482 1.09385 20.1884 1.2762C20.6287 1.45854 21.0287 1.72581 21.3656 2.06274C21.7025 2.39967 21.9698 2.79967 22.1521 3.23989C22.3345 3.68011 22.4283 4.15194 22.4283 4.62843C22.4283 5.10492 22.3345 5.57674 22.1521 6.01697C21.9698 6.45719 21.7025 6.85718 21.3656 7.19411L7.86558 20.6941C7.76714 20.7926 7.64471 20.8636 7.51039 20.9002L2.01039 22.4002C1.73342 22.4758 1.43721 22.3971 1.23421 22.1941C1.03121 21.9911 0.952548 21.6949 1.02809 21.4179L2.52809 15.9179C2.56472 15.7836 2.63577 15.6612 2.73421 15.5627L16.2342 2.06274C16.5711 1.72581 16.9711 1.45854 17.4114 1.2762Z" fill="#3C3C3C"/>
</svg>
