<svg width="25" height="24" viewBox="0 0 25 24" fill="none" xmlns="http://www.w3.org/2000/svg">
<path fill-rule="evenodd" clip-rule="evenodd" d="M3.08021 14.2C3.52204 14.2 3.88021 14.5582 3.88021 15V19C3.88021 19.3183 4.00664 19.6235 4.23168 19.8485C4.45673 20.0736 4.76195 20.2 5.08021 20.2H19.0802C19.3985 20.2 19.7037 20.0736 19.9287 19.8485C20.1538 19.6235 20.2802 19.3183 20.2802 19V15C20.2802 14.5582 20.6384 14.2 21.0802 14.2C21.522 14.2 21.8802 14.5582 21.8802 15V19C21.8802 19.7426 21.5852 20.4548 21.0601 20.9799C20.535 21.505 19.8228 21.8 19.0802 21.8H5.08021C4.33761 21.8 3.62541 21.505 3.10031 20.9799C2.57521 20.4548 2.28021 19.7426 2.28021 19V15C2.28021 14.5582 2.63838 14.2 3.08021 14.2Z" fill="#3C3C3C"/>
<path fill-rule="evenodd" clip-rule="evenodd" d="M6.51453 9.43432C6.82695 9.1219 7.33348 9.1219 7.6459 9.43432L12.0802 13.8686L16.5145 9.43432C16.8269 9.1219 17.3335 9.1219 17.6459 9.43432C17.9583 9.74673 17.9583 10.2533 17.6459 10.5657L12.6459 15.5657C12.3335 15.8781 11.8269 15.8781 11.5145 15.5657L6.51453 10.5657C6.20211 10.2533 6.20211 9.74673 6.51453 9.43432Z" fill="#3C3C3C"/>
<path fill-rule="evenodd" clip-rule="evenodd" d="M12.0802 2.2C12.522 2.2 12.8802 2.55817 12.8802 3V15C12.8802 15.4418 12.522 15.8 12.0802 15.8C11.6384 15.8 11.2802 15.4418 11.2802 15V3C11.2802 2.55817 11.6384 2.2 12.0802 2.2Z" fill="#3C3C3C"/>
</svg>
