<svg width="25" height="24" viewBox="0 0 25 24" fill="none" xmlns="http://www.w3.org/2000/svg">
<path fill-rule="evenodd" clip-rule="evenodd" d="M21.9999 3.8C21.9999 4.24183 21.6418 4.6 21.1999 4.6L14.1999 4.6C13.7581 4.6 13.3999 4.24183 13.3999 3.8C13.3999 3.35817 13.7581 3 14.1999 3L21.1999 3C21.6418 3 21.9999 3.35817 21.9999 3.8ZM9.39994 3L3.19994 3C2.75811 3 2.39994 3.35817 2.39994 3.8C2.39994 4.24183 2.75811 4.6 3.19994 4.6H9.39994V6.8C9.39994 7.24183 9.75811 7.6 10.1999 7.6C10.6418 7.6 10.9999 7.24183 10.9999 6.8V3.8V0.8C10.9999 0.358172 10.6418 0 10.1999 0C9.75811 0 9.39994 0.358172 9.39994 0.8V3ZM12.1999 12.6C12.6418 12.6 12.9999 12.2418 12.9999 11.8C12.9999 11.3582 12.6418 11 12.1999 11L3.19994 11C2.75811 11 2.39994 11.3582 2.39994 11.8C2.39994 12.2418 2.75811 12.6 3.19994 12.6L12.1999 12.6ZM21.9999 11.8C21.9999 12.2418 21.6418 12.6 21.1999 12.6H16.9999V14.8C16.9999 15.2418 16.6418 15.6 16.1999 15.6C15.7581 15.6 15.3999 15.2418 15.3999 14.8V11.8009L15.3999 11.8L15.3999 11.7991V8.8C15.3999 8.35817 15.7581 8 16.1999 8C16.6418 8 16.9999 8.35817 16.9999 8.8V11H21.1999C21.6418 11 21.9999 11.3582 21.9999 11.8ZM8.99994 19.8V22.8C8.99994 23.2418 8.64177 23.6 8.19994 23.6C7.75811 23.6 7.39994 23.2418 7.39994 22.8V20.6H3.19994C2.75811 20.6 2.39994 20.2418 2.39994 19.8C2.39994 19.3582 2.75811 19 3.19994 19H7.39994V16.8C7.39994 16.3582 7.75811 16 8.19994 16C8.64177 16 8.99994 16.3582 8.99994 16.8V19.8ZM21.9999 19.8C21.9999 20.2418 21.6418 20.6 21.1999 20.6H12.1999C11.7581 20.6 11.3999 20.2418 11.3999 19.8C11.3999 19.3582 11.7581 19 12.1999 19H21.1999C21.6418 19 21.9999 19.3582 21.9999 19.8Z" fill="#3C3C3C"/>
</svg>
