<svg width="80" height="48" viewBox="0 0 80 48" fill="none" xmlns="http://www.w3.org/2000/svg">
<path fill-rule="evenodd" clip-rule="evenodd" d="M16 0C7.16344 0 0 7.16344 0 16V32C0 40.8366 7.16344 48 16 48H64C72.8366 48 80 40.8366 80 32V16C80 7.16344 72.8366 0 64 0H16ZM19.3679 27.016H19.0079V32.536H14.9999V16H21.8399C23.6639 16 25.0559 16.552 26.0399 17.632C27.0239 18.712 27.5039 20.008 27.5039 21.52C27.5039 22.768 27.1679 23.896 26.4719 24.88C25.7999 25.864 24.8159 26.512 23.5439 26.824L27.5759 32.536H22.9199L19.3679 27.016ZM21.6479 23.56C24.0479 23.68 24.0479 19.36 21.6479 19.504H19.0079V23.56H21.6479ZM34.0223 16L38.9663 24.904V16H42.9743V32.536H39.4703L34.4063 23.512V32.536H30.3983V16H34.0223ZM58.4959 20.44C58.4959 19.12 58.0399 18.04 57.1039 17.224C56.1919 16.408 54.9679 16 53.4319 16H46.6639V32.536H53.9119C55.7839 32.536 57.1519 32.056 58.0399 31.12C58.9279 30.16 59.3599 29.008 59.3599 27.64C59.3599 26.752 59.0959 25.912 58.5439 25.12C57.9919 24.328 57.1999 23.872 56.1679 23.704C56.9839 23.464 57.5839 23.008 57.9439 22.36C58.3039 21.712 58.4959 21.064 58.4959 20.44ZM50.6959 19.504H52.9039C53.7919 19.504 54.2479 20.008 54.2479 21.016C54.2479 21.856 53.6959 22.384 52.8559 22.384H50.6959V19.504ZM53.2399 25.672C54.4879 25.672 55.1119 26.464 55.1119 27.328C55.1119 28.264 54.4399 29.032 53.2639 29.032H50.6959V25.672H53.2399ZM63.6933 32.752C62.4453 32.752 61.4373 31.792 61.4373 30.52C61.4373 29.272 62.4453 28.336 63.6933 28.336C64.9653 28.336 65.9973 29.272 65.9973 30.52C65.9973 31.792 64.9653 32.752 63.6933 32.752Z" fill="#F7F7F7"/>
</svg>
