<svg width="80" height="48" viewBox="0 0 80 48" fill="none" xmlns="http://www.w3.org/2000/svg">
<path d="M0 16C0 7.16344 7.16344 0 16 0H64C72.8366 0 80 7.16344 80 16V32C80 40.8366 72.8366 48 64 48H16C7.16344 48 0 40.8366 0 32V16Z" fill="#F7F7F7"/>
<path d="M19.0079 27.016H19.3679L22.9199 32.536H27.5759L23.5439 26.824C24.8159 26.512 25.7999 25.864 26.4719 24.88C27.1679 23.896 27.5039 22.768 27.5039 21.52C27.5039 20.008 27.0239 18.712 26.0399 17.632C25.0559 16.552 23.6639 16 21.8399 16H14.9999V32.536H19.0079V27.016ZM21.6479 19.504C24.0479 19.36 24.0479 23.68 21.6479 23.56H19.0079V19.504H21.6479Z" fill="#3C3C3C"/>
<path d="M38.9663 24.904L34.0223 16H30.3983V32.536H34.4063V23.512L39.4703 32.536H42.9743V16H38.9663V24.904Z" fill="#3C3C3C"/>
<path d="M58.4959 20.44C58.4959 19.12 58.0399 18.04 57.1039 17.224C56.1919 16.408 54.9679 16 53.4319 16H46.6639V32.536H53.9119C55.7839 32.536 57.1519 32.056 58.0399 31.12C58.9279 30.16 59.3599 29.008 59.3599 27.64C59.3599 26.752 59.0959 25.912 58.5439 25.12C57.9919 24.328 57.1999 23.872 56.1679 23.704C56.9839 23.464 57.5839 23.008 57.9439 22.36C58.3039 21.712 58.4959 21.064 58.4959 20.44ZM50.6959 19.504H52.9039C53.7919 19.504 54.2479 20.008 54.2479 21.016C54.2479 21.856 53.6959 22.384 52.8559 22.384H50.6959V19.504ZM53.2399 25.672C54.4879 25.672 55.1119 26.464 55.1119 27.328C55.1119 28.264 54.4399 29.032 53.2639 29.032H50.6959V25.672H53.2399Z" fill="#3C3C3C"/>
<path d="M61.4373 30.52C61.4373 31.792 62.4453 32.752 63.6933 32.752C64.9653 32.752 65.9973 31.792 65.9973 30.52C65.9973 29.272 64.9653 28.336 63.6933 28.336C62.4453 28.336 61.4373 29.272 61.4373 30.52Z" fill="#3C3C3C"/>
</svg>
