<svg width="56" height="24" viewBox="0 0 56 24" fill="none" xmlns="http://www.w3.org/2000/svg">
<path d="M6.8443 18H2.8363V1.46399H9.6763C11.5003 1.46399 12.9003 2.00799 13.8763 3.09599C14.8523 4.18399 15.3403 5.47999 15.3403 6.98399C15.3403 8.23199 14.9963 9.35199 14.3083 10.344C13.6363 11.32 12.6603 11.968 11.3803 12.288L15.4123 18H10.7563L7.2043 12.48H6.8443V18ZM9.4843 4.96799H6.8443V9.02399H9.4843C10.0923 9.02399 10.5403 8.82399 10.8283 8.42399C11.1323 8.02399 11.2843 7.54399 11.2843 6.98399C11.2843 6.42399 11.1323 5.95199 10.8283 5.56799C10.5403 5.16799 10.0923 4.96799 9.4843 4.96799Z" fill="#3C3C3C"/>
<path d="M26.8027 1.46399H30.8107V18H27.3067L22.2427 8.97599V18H18.2347V1.46399H21.8587L26.8027 10.368V1.46399Z" fill="#3C3C3C"/>
<path d="M46.3324 5.90399C46.3324 6.52799 46.1484 7.16799 45.7804 7.82399C45.4124 8.47999 44.8204 8.92799 44.0044 9.16799C45.0444 9.32799 45.8364 9.79999 46.3804 10.584C46.9244 11.368 47.1964 12.208 47.1964 13.104C47.1964 14.464 46.7564 15.624 45.8764 16.584C44.9964 17.528 43.6204 18 41.7484 18H34.5004V1.46399H41.2684C42.8044 1.46399 44.0284 1.87199 44.9404 2.68799C45.8684 3.50399 46.3324 4.57599 46.3324 5.90399ZM38.5324 7.84799H40.6924C41.1084 7.84799 41.4444 7.72799 41.7004 7.48799C41.9564 7.23199 42.0844 6.89599 42.0844 6.47999C42.0844 5.47199 41.6364 4.96799 40.7404 4.96799H38.5324V7.84799ZM41.0764 11.136H38.5324V14.496H41.1004C41.6924 14.496 42.1484 14.328 42.4684 13.992C42.7884 13.656 42.9484 13.256 42.9484 12.792C42.9484 12.36 42.7884 11.976 42.4684 11.64C42.1644 11.304 41.7004 11.136 41.0764 11.136Z" fill="#3C3C3C"/>
<path d="M49.2737 15.984C49.2737 15.36 49.4897 14.84 49.9217 14.424C50.3697 14.008 50.9057 13.8 51.5297 13.8C52.1697 13.8 52.7137 14.008 53.1617 14.424C53.6097 14.84 53.8337 15.36 53.8337 15.984C53.8337 16.624 53.6097 17.16 53.1617 17.592C52.7137 18.008 52.1697 18.216 51.5297 18.216C50.9057 18.216 50.3697 18.008 49.9217 17.592C49.4897 17.16 49.2737 16.624 49.2737 15.984Z" fill="#3C3C3C"/>
</svg>
