<svg width="24" height="24" viewBox="0 0 24 24" fill="none" xmlns="http://www.w3.org/2000/svg">
<path d="M11.8869 11.6199C11.8569 11.6199 11.8369 11.6199 11.8069 11.6199C11.7569 11.6099 11.6869 11.6099 11.6269 11.6199C8.72687 11.5299 6.53687 9.24991 6.53687 6.43991C6.53687 3.57991 8.86687 1.24991 11.7269 1.24991C14.5869 1.24991 16.9169 3.57991 16.9169 6.43991C16.9069 9.24991 14.7069 11.5299 11.9169 11.6199C11.9069 11.6199 11.8969 11.6199 11.8869 11.6199ZM11.7269 2.74991C9.69687 2.74991 8.03687 4.40991 8.03687 6.43991C8.03687 8.43991 9.59687 10.0499 11.5869 10.1199C11.6469 10.1099 11.7769 10.1099 11.9069 10.1199C13.8669 10.0299 15.4069 8.41991 15.4169 6.43991C15.4169 4.40991 13.7569 2.74991 11.7269 2.74991Z" fill="#3C3C3C"/>
<path d="M11.8969 22.5501C9.9369 22.5501 7.9669 22.0501 6.4769 21.0501C5.0869 20.1301 4.3269 18.8701 4.3269 17.5001C4.3269 16.1301 5.0869 14.8601 6.4769 13.9301C9.4769 11.9401 14.3369 11.9401 17.3169 13.9301C18.6969 14.8501 19.4669 16.1101 19.4669 17.4801C19.4669 18.8501 18.7069 20.1201 17.3169 21.0501C15.8169 22.0501 13.8569 22.5501 11.8969 22.5501ZM7.3069 15.1901C6.3469 15.8301 5.8269 16.6501 5.8269 17.5101C5.8269 18.3601 6.3569 19.1801 7.3069 19.8101C9.7969 21.4801 13.9969 21.4801 16.4869 19.8101C17.4469 19.1701 17.9669 18.3501 17.9669 17.4901C17.9669 16.6401 17.4369 15.8201 16.4869 15.1901C13.9969 13.5301 9.7969 13.5301 7.3069 15.1901Z" fill="#3C3C3C"/>
</svg>
