<svg width="24" height="24" viewBox="0 0 24 24" fill="none" xmlns="http://www.w3.org/2000/svg">
<path fill-rule="evenodd" clip-rule="evenodd" d="M19.9778 21.4C19.9925 21.5981 20 21.7982 20 22V23H4V22C4 21.7982 4.00747 21.5981 4.02216 21.4C4.32898 17.262 7.78356 14 12 14C16.2164 14 19.671 17.262 19.9778 21.4ZM5.62775 21.4C5.93024 18.1467 8.66771 15.6 12 15.6C15.3323 15.6 18.0698 18.1467 18.3722 21.4H5.62775Z" fill="#3C3C3C"/>
<path fill-rule="evenodd" clip-rule="evenodd" d="M12 10.4C13.8778 10.4 15.4 8.87777 15.4 7C15.4 5.12223 13.8778 3.6 12 3.6C10.1222 3.6 8.6 5.12223 8.6 7C8.6 8.87777 10.1222 10.4 12 10.4ZM12 12C14.7614 12 17 9.76142 17 7C17 4.23858 14.7614 2 12 2C9.23858 2 7 4.23858 7 7C7 9.76142 9.23858 12 12 12Z" fill="#3C3C3C"/>
</svg>
