<svg width="25" height="24" viewBox="0 0 25 24" fill="none" xmlns="http://www.w3.org/2000/svg">
<path fill-rule="evenodd" clip-rule="evenodd" d="M14.4332 15.4457C11.774 17.5684 7.88162 17.4013 5.41662 14.9445C2.77177 12.3085 2.77177 8.03464 5.41662 5.3986C8.06148 2.76256 12.3496 2.76256 14.9945 5.3986C17.4595 7.85538 17.6271 11.7348 15.4974 14.3851L20.6702 19.5407C20.9641 19.8336 20.9641 20.3085 20.6702 20.6014C20.3764 20.8943 19.8999 20.8943 19.606 20.6014L14.4332 15.4457ZM6.48083 13.8839C4.42372 11.8336 4.42372 8.50951 6.48083 6.45926C8.53794 4.40901 11.8732 4.40901 13.9303 6.45926C15.9859 8.50801 15.9874 11.8287 13.9348 13.8794C13.9333 13.8809 13.9318 13.8823 13.9303 13.8839C13.9288 13.8854 13.9272 13.8869 13.9258 13.8884C11.8683 15.9341 8.53643 15.9326 6.48083 13.8839Z" fill="#3C3C3C"/>
</svg>
