<svg width="24" height="24" viewBox="0 0 24 24" fill="none" xmlns="http://www.w3.org/2000/svg">
<path fill-rule="evenodd" clip-rule="evenodd" d="M14 2.25C14.1381 2.25 14.25 2.36193 14.25 2.5V8.14706C14.25 8.56127 14.5858 8.89706 15 8.89706H19.5C19.6381 8.89706 19.75 9.00899 19.75 9.14706V19C19.75 20.5188 18.5188 21.75 17 21.75H7C5.48122 21.75 4.25 20.5188 4.25 19V5C4.25 3.48122 5.48122 2.25 7 2.25H14ZM16.0862 2.63839C15.9426 2.5225 15.75 2.63964 15.75 2.82414V7.14706C15.75 7.28513 15.8619 7.39706 16 7.39706H19.2983C19.416 7.39706 19.4903 7.27302 19.4217 7.17745L16.4085 2.97955C16.3158 2.85036 16.2071 2.736 16.0862 2.63839ZM12 9.9C12.3314 9.9 12.6 10.1686 12.6 10.5V14.4526L14.0906 13.0614C14.3329 12.8353 14.7126 12.8484 14.9387 13.0906C15.1648 13.3329 15.1517 13.7125 14.9094 13.9386L12.4138 16.2679C12.3061 16.3704 12.1604 16.4333 12 16.4333C11.9078 16.4333 11.8204 16.4125 11.7423 16.3753C11.688 16.3495 11.6367 16.315 11.5906 16.272L9.09063 13.9386C8.84838 13.7125 8.83529 13.3329 9.0614 13.0906C9.2875 12.8484 9.66717 12.8353 9.90942 13.0614L11.4 14.4526V10.5C11.4 10.1686 11.6687 9.9 12 9.9Z" fill="#3C3C3C"/>
</svg>
