<svg width="27" height="28" viewBox="0 0 27 28" fill="none" xmlns="http://www.w3.org/2000/svg">
<path fill-rule="evenodd" clip-rule="evenodd" d="M7.59565 7.47918C8.8709 6.20393 10.6005 5.4875 12.404 5.4875C14.2075 5.4875 15.9371 6.20393 17.2123 7.47918C18.4876 8.75442 19.204 10.484 19.204 12.2875C19.204 16.9118 20.5562 19.1751 21.3129 20.086C21.6574 20.5007 21.6056 21.0129 21.4804 21.3255C21.3565 21.6346 21.0157 22.0875 20.4131 22.0875H4.39481C3.79229 22.0875 3.45141 21.6346 3.32757 21.3255C3.20235 21.0129 3.15057 20.5007 3.49507 20.086C4.25177 19.1751 5.60398 16.9118 5.60398 12.2875C5.60398 10.484 6.32041 8.75442 7.59565 7.47918ZM12 27C13.313 27 14.429 26.1565 14.8357 24.9819C15.0163 24.46 14.5523 24 14 24H10C9.44774 24 8.98371 24.46 9.16439 24.9819C9.57107 26.1565 10.687 27 12 27Z" fill="#3C3C3C"/>
<circle cx="20" cy="7" r="6.2" fill="#DF5555" stroke="white" stroke-width="1.6"/>
</svg>
