<svg width="24" height="24" viewBox="0 0 24 24" fill="none" xmlns="http://www.w3.org/2000/svg">
<path fill-rule="evenodd" clip-rule="evenodd" d="M12.7173 1.6459C12.5826 1.37286 12.3045 1.2 12 1.2C11.6955 1.2 11.4174 1.37286 11.2826 1.6459L8.37856 7.52917L1.88427 8.47841C1.58302 8.52244 1.33288 8.73365 1.23898 9.02325C1.14508 9.31286 1.22369 9.63066 1.44179 9.84309L6.14036 14.4195L5.03149 20.8848C4.98001 21.1849 5.1034 21.4883 5.34979 21.6672C5.59617 21.8462 5.9228 21.8698 6.19234 21.7281L12 18.6739L17.8076 21.7281C18.0771 21.8698 18.4038 21.8462 18.6502 21.6672C18.8965 21.4883 19.0199 21.1849 18.9685 20.8848L17.8596 14.4195L22.5582 9.84309C22.7763 9.63066 22.8549 9.31286 22.761 9.02325C22.6671 8.73365 22.4169 8.52244 22.1157 8.47841L15.6214 7.52917L12.7173 1.6459Z" fill="#3C3C3C"/>
</svg>
