<svg width="24" height="24" viewBox="0 0 24 24" fill="none" xmlns="http://www.w3.org/2000/svg">
<path fill-rule="evenodd" clip-rule="evenodd" d="M12 3.5C7.30558 3.5 3.5 7.30558 3.5 12C3.5 16.6944 7.30558 20.5 12 20.5C16.6944 20.5 20.5 16.6944 20.5 12C20.5 7.30558 16.6944 3.5 12 3.5ZM11.2 7.8C11.2 7.35817 11.5582 7 12 7C12.4418 7 12.8 7.35817 12.8 7.8V11.2H16.2C16.6418 11.2 17 11.5582 17 12C17 12.4418 16.6418 12.8 16.2 12.8H12.8V16.2C12.8 16.6418 12.4418 17 12 17C11.5582 17 11.2 16.6418 11.2 16.2V12.8H7.8C7.35817 12.8 7 12.4418 7 12C7 11.5582 7.35817 11.2 7.8 11.2H11.2V7.8Z" fill="#3C3C3C"/>
</svg>
