<svg width="27" height="27" viewBox="0 0 27 27" fill="none" xmlns="http://www.w3.org/2000/svg">
<path d="M4.5 12.7659C4.5 8.73718 7.87403 5.5 12 5.5C16.126 5.5 19.5 8.73718 19.5 12.7659C19.5 15.1199 18.5269 17.2437 16.7051 18.5831C16.5794 18.6756 16.5033 18.7902 16.4767 18.9028C16.423 19.1308 16.3641 19.3918 16.3035 19.6718C16.2735 19.8103 16.1512 19.9095 16.0095 19.9095H7.99054C7.8488 19.9095 7.72649 19.8103 7.6965 19.6718C7.63588 19.3918 7.57696 19.1308 7.52325 18.9028C7.49675 18.7902 7.42064 18.6756 7.2949 18.5831C5.47313 17.2437 4.5 15.1199 4.5 12.7659Z" fill="#3C3C3C"/>
<path d="M8.40053 21.4095C8.21367 21.4095 8.07242 21.5786 8.10352 21.7629C8.19745 22.3194 8.26604 22.8165 8.28682 23.1599C8.34981 24.2011 9.11672 25.0588 10.1422 25.2803L10.3382 25.3227C11.4326 25.5591 12.5674 25.5591 13.6618 25.3227L13.8578 25.2803C14.8833 25.0588 15.6502 24.2011 15.7132 23.1599C15.734 22.8165 15.8026 22.3194 15.8965 21.7629C15.9276 21.5786 15.7863 21.4095 15.5995 21.4095H8.40053Z" fill="#3C3C3C"/>
<circle cx="20" cy="7" r="6.2" fill="#DF5555" stroke="white" stroke-width="1.6"/>
</svg>
