<svg width="24" height="24" viewBox="0 0 24 24" fill="none" xmlns="http://www.w3.org/2000/svg">
<g clip-path="url(#clip0_35_30737)">
<path fill-rule="evenodd" clip-rule="evenodd" d="M11.7913 1.56367C8.36711 1.56367 5.59127 4.33951 5.59127 7.76367C5.59127 11.1878 8.36711 13.9637 11.7913 13.9637C15.2154 13.9637 17.9913 11.1878 17.9913 7.76367C17.9913 4.33951 15.2154 1.56367 11.7913 1.56367ZM3.99127 7.76367C3.99127 3.45585 7.48345 -0.0363274 11.7913 -0.0363274C16.0991 -0.0363274 19.5913 3.45585 19.5913 7.76367C19.5913 12.0715 16.0991 15.5637 11.7913 15.5637C7.48345 15.5637 3.99127 12.0715 3.99127 7.76367Z" fill="#3C3C3C"/>
<path fill-rule="evenodd" clip-rule="evenodd" d="M15.476 12.8505C15.914 12.7924 16.3162 13.1003 16.3743 13.5383L17.3115 20.6022C17.5097 22.0963 15.8935 23.1579 14.601 22.3824L12.4086 21.0669C12.0286 20.8389 11.5539 20.8389 11.1738 21.0669L8.98177 22.3822C7.68918 23.1577 6.07287 22.096 6.27135 20.6017L7.2082 13.5482C7.26637 13.1102 7.66858 12.8023 8.10656 12.8605C8.54455 12.9187 8.85244 13.3209 8.79427 13.7589L7.85742 20.8124C7.83537 20.9784 8.01496 21.0964 8.15858 21.0102L10.3506 19.695C11.2374 19.1629 12.3451 19.1629 13.2318 19.695L15.4242 21.0104C15.5678 21.0966 15.7474 20.9786 15.7254 20.8126L14.7882 13.7488C14.7301 13.3108 15.038 12.9086 15.476 12.8505Z" fill="#3C3C3C"/>
</g>
<defs>
<clipPath id="clip0_35_30737">
<rect width="24" height="24" fill="white"/>
</clipPath>
</defs>
</svg>
