<svg width="24" height="24" viewBox="0 0 24 24" fill="none" xmlns="http://www.w3.org/2000/svg">
<path fill-rule="evenodd" clip-rule="evenodd" d="M14.25 2.5C14.25 2.36193 14.1381 2.25 14 2.25H7C5.48122 2.25 4.25 3.48122 4.25 5V19C4.25 20.5188 5.48122 21.75 7 21.75H17C18.5188 21.75 19.75 20.5188 19.75 19V9.14706C19.75 9.00899 19.6381 8.89706 19.5 8.89706H15C14.5858 8.89706 14.25 8.56127 14.25 8.14706V2.5Z" fill="#3C3C3C"/>
<path d="M15.75 2.82414C15.75 2.63964 15.9426 2.5225 16.0862 2.63839C16.2071 2.736 16.3158 2.85036 16.4085 2.97955L19.4217 7.17745C19.4903 7.27302 19.416 7.39706 19.2983 7.39706H16C15.8619 7.39706 15.75 7.28513 15.75 7.14706V2.82414Z" fill="#3C3C3C"/>
</svg>
