<svg width="24" height="24" viewBox="0 0 24 24" fill="none" xmlns="http://www.w3.org/2000/svg">
<path fill-rule="evenodd" clip-rule="evenodd" d="M19 1.37157C18.5235 1.37157 18.0517 1.46542 17.6114 1.64777C17.1712 1.83012 16.7712 2.09738 16.4343 2.43431L2.93428 15.9343C2.83584 16.0328 2.76479 16.1552 2.72816 16.2895L1.22816 21.7895C1.15262 22.0665 1.23128 22.3627 1.43428 22.5657C1.63728 22.7687 1.93349 22.8473 2.21046 22.7718L7.71046 21.2718C7.84478 21.2352 7.96721 21.1641 8.06566 21.0657L21.5657 7.56569C21.9026 7.22876 22.1699 6.82876 22.3522 6.38854C22.5345 5.94832 22.6284 5.47649 22.6284 5C22.6284 4.52351 22.5345 4.05168 22.3522 3.61146C22.1699 3.17124 21.9026 2.77124 21.5657 2.43431C21.2287 2.09738 20.8287 1.83012 20.3885 1.64777C19.9483 1.46542 19.4765 1.37157 19 1.37157Z" fill="#3C3C3C"/>
</svg>
