<svg width="25" height="24" viewBox="0 0 25 24" fill="none" xmlns="http://www.w3.org/2000/svg">
<path fill-rule="evenodd" clip-rule="evenodd" d="M12.0799 2.80002C6.99887 2.80002 2.8799 6.919 2.8799 12C2.8799 17.081 6.99887 21.2 12.0799 21.2C17.1609 21.2 21.2799 17.081 21.2799 12C21.2799 6.919 17.1609 2.80002 12.0799 2.80002ZM1.27991 12C1.27991 6.03534 6.11522 1.20002 12.0799 1.20002C18.0445 1.20002 22.8799 6.03534 22.8799 12C22.8799 17.9647 18.0445 22.8 12.0799 22.8C6.11522 22.8 1.27991 17.9647 1.27991 12ZM15.646 8.43432C15.9584 8.74673 15.9584 9.25327 15.646 9.56569L13.2117 12L15.646 14.4343C15.9584 14.7467 15.9584 15.2533 15.646 15.5657C15.3336 15.8781 14.8271 15.8781 14.5147 15.5657L12.0804 13.1314L9.64605 15.5657C9.33363 15.8781 8.8271 15.8781 8.51468 15.5657C8.20226 15.2533 8.20226 14.7467 8.51468 14.4343L10.949 12L8.51468 9.56569C8.20226 9.25327 8.20226 8.74673 8.51468 8.43432C8.8271 8.1219 9.33363 8.1219 9.64605 8.43432L12.0804 10.8686L14.5147 8.43432C14.8271 8.1219 15.3336 8.1219 15.646 8.43432Z" fill="#DF5555"/>
</svg>
