<svg width="25" height="24" viewBox="0 0 25 24" fill="none" xmlns="http://www.w3.org/2000/svg">
<path fill-rule="evenodd" clip-rule="evenodd" d="M18.6459 6.56569C18.9583 6.25327 18.9583 5.74673 18.6459 5.43432C18.3335 5.1219 17.8269 5.1219 17.5145 5.43432L12.0802 10.8686L6.6459 5.43432C6.33348 5.1219 5.82695 5.1219 5.51453 5.43432C5.20211 5.74673 5.20211 6.25327 5.51453 6.56569L10.9488 12L5.51453 17.4343C5.20211 17.7467 5.20211 18.2533 5.51453 18.5657C5.82695 18.8781 6.33348 18.8781 6.6459 18.5657L12.0802 13.1314L17.5145 18.5657C17.8269 18.8781 18.3335 18.8781 18.6459 18.5657C18.9583 18.2533 18.9583 17.7467 18.6459 17.4343L13.2116 12L18.6459 6.56569Z" fill="#3C3C3C"/>
</svg>
